<svg width="67" height="67" viewBox="0 0 67 67" fill="none" xmlns="http://www.w3.org/2000/svg">
<g clip-path="url(#clip0_217_4)">
<path fill-rule="evenodd" clip-rule="evenodd" d="M59.2576 12.5114L57.2309 16.2609C56.6879 17.3508 56.3854 18.5446 56.3439 19.7616C56.3024 20.9785 56.5228 22.1902 56.9903 23.3145C57.4578 24.4389 58.1614 25.4497 59.0534 26.2785C59.9455 27.1073 61.0052 27.7347 62.1609 28.1184L66.3117 29.502C66.4505 30.7358 66.5217 31.99 66.5217 33.2609C66.5217 34.4863 66.4554 35.6963 66.3263 36.8874L62.1609 38.2759C60.9881 38.6563 59.9121 39.2873 59.0076 40.125C58.1031 40.9628 57.3916 41.9874 56.9226 43.1276C56.4536 44.2678 56.2382 45.4964 56.2914 46.7282C56.3447 47.9599 56.6652 49.1654 57.2309 50.2609L59.1639 54.127C57.638 56.0188 55.9091 57.74 54.0103 59.2576L50.2609 57.2309C49.171 56.6879 47.9771 56.3854 46.7602 56.3439C45.5432 56.3024 44.3316 56.5228 43.2072 56.9903C42.0829 57.4578 41.0721 58.1614 40.2433 59.0534C39.4145 59.9455 38.787 61.0052 38.4034 62.1609L37.0198 66.3117C35.786 66.4505 34.5317 66.5217 33.2609 66.5217C32.0354 66.5217 30.8255 66.4555 29.6344 66.3263L28.2459 62.1609C27.8655 60.9881 27.2345 59.9121 26.3967 59.0076C25.5589 58.1031 24.5344 57.3916 23.3942 56.9226C22.254 56.4536 21.0253 56.2382 19.7936 56.2914C18.5618 56.3447 17.3564 56.6652 16.2609 57.2309L12.3948 59.1639C10.5029 57.638 8.78171 55.9091 7.26416 54.0103L9.29088 50.2609C9.85652 49.1654 10.1771 47.9599 10.2303 46.7282C10.2836 45.4964 10.0682 44.2678 9.59917 43.1276C9.13014 41.9874 8.41869 40.9628 7.51414 40.125C6.6096 39.2873 5.53363 38.6563 4.36087 38.2759L0.195427 36.8874C0.0662689 35.6963 0 34.4863 0 33.2609C0 32.0354 0.0662689 30.8255 0.195427 29.6344L4.36087 28.2459C5.53363 27.8655 6.6096 27.2345 7.51414 26.3967C8.41869 25.5589 9.13014 24.5344 9.59917 23.3942C10.0682 22.2539 10.2836 21.0253 10.2303 19.7936C10.1771 18.5618 9.85652 17.3564 9.29088 16.2609L7.32593 12.4344C8.83897 10.5526 10.5526 8.83897 12.4344 7.32592L16.2609 9.29087C17.3564 9.85653 18.5618 10.1771 19.7936 10.2303C21.0253 10.2836 22.254 10.0682 23.3942 9.59916C24.5344 9.13014 25.5589 8.41868 26.3967 7.51414C27.2345 6.6096 27.8655 5.53364 28.2459 4.36088L29.6344 0.195427C30.8255 0.0662708 32.0354 0 33.2609 0C34.4863 0 35.6963 0.0662727 36.8874 0.195429L38.2759 4.36088C38.6563 5.53364 39.2873 6.6096 40.125 7.51414C40.9628 8.41868 41.9874 9.13014 43.1276 9.59916C44.2678 10.0682 45.4964 10.2836 46.7282 10.2303C47.9599 10.1771 49.1654 9.85653 50.2609 9.29087L54.127 7.35783C56.0188 8.88372 57.74 10.6126 59.2576 12.5114ZM23.8162 19.1259C26.6118 17.2579 29.8986 16.2609 33.2609 16.2609C37.7695 16.2609 42.0936 18.0519 45.2817 21.2401C48.4698 24.4282 50.2609 28.7522 50.2609 33.2609C50.2609 36.6232 49.2638 39.9099 47.3959 42.7056C45.5279 45.5012 42.8728 47.6801 39.7665 48.9668C36.6601 50.2535 33.242 50.5902 29.9443 49.9342C26.6467 49.2783 23.6176 47.6592 21.2401 45.2817C18.8626 42.9042 17.2435 39.8751 16.5875 36.5774C15.9316 33.2797 16.2682 29.8616 17.5549 26.7553C18.8416 23.6489 21.0205 20.9939 23.8162 19.1259ZM28.5385 40.3284C29.9363 41.2624 31.5797 41.7609 33.2609 41.7609C35.5152 41.7609 37.6772 40.8653 39.2713 39.2713C40.8653 37.6772 41.7609 35.5152 41.7609 33.2609C41.7609 31.5797 41.2624 29.9363 40.3284 28.5385C39.3944 27.1407 38.0668 26.0512 36.5137 25.4079C34.9605 24.7645 33.2514 24.5962 31.6026 24.9242C29.9538 25.2522 28.4392 26.0617 27.2505 27.2505C26.0617 28.4392 25.2522 29.9538 24.9242 31.6026C24.5962 33.2514 24.7645 34.9605 25.4079 36.5137C26.0512 38.0668 27.1407 39.3944 28.5385 40.3284Z" fill="#F4511E"/>
</g>
<defs>
<clipPath id="clip0_217_4">
<rect width="67" height="67" fill="white"/>
</clipPath>
</defs>
</svg>
